<?xml version="1.0" standalone="no"?>
<!DOCTYPE svg PUBLIC "-//W3C//DTD SVG 20010904//EN"
 "http://www.w3.org/TR/2001/REC-SVG-20010904/DTD/svg10.dtd">
<svg version="1.0" xmlns="http://www.w3.org/2000/svg"
 width="87.000000pt" height="87.000000pt" viewBox="0 0 87.000000 87.000000"
 preserveAspectRatio="xMidYMid meet">
<metadata>
Created by potrace 1.14, written by Peter Selinger 2001-2017
</metadata>
<g transform="translate(0.000000,87.000000) scale(0.100000,-0.100000)"
fill="#000000" stroke="none">
<path d="M355 734 c-55 -25 -144 -65 -199 -89 -54 -24 -107 -52 -117 -61 -25
-23 -41 -83 -33 -125 11 -56 39 -92 175 -223 l131 -126 273 0 c151 0 276 4
279 9 3 5 -4 21 -15 35 -14 17 -19 36 -16 52 3 16 1 22 -5 16 -11 -11 -13 -42
-3 -64 7 -17 -8 -18 -225 -18 -257 0 -260 1 -260 64 0 78 5 82 269 188 l173
70 27 -27 c18 -19 22 -29 13 -32 -10 -4 -10 -9 3 -23 12 -13 13 -20 5 -25 -9
-6 -9 -10 1 -16 8 -4 13 -24 12 -46 -2 -37 -1 -37 7 -9 5 17 5 36 0 46 -5 10
-7 20 -3 23 3 4 0 14 -7 23 -11 13 -11 17 -1 24 10 6 5 15 -20 38 l-34 30 28
13 c15 7 27 15 27 19 0 13 -351 280 -368 280 -9 0 -62 -21 -117 -46z"/>
</g>
</svg>
